<svg width="1100" height="760" viewBox="0 0 1100 760" fill="none" xmlns="http://www.w3.org/2000/svg"><rect width="1100" height="760" rx="54" fill="url(#g)"/><circle cx="820" cy="106" r="170" fill="#C7E6FF" opacity=".55"/><circle cx="170" cy="650" r="150" fill="#F7C56A" opacity=".22"/><path d="M360 645C444 459 584 351 757 326C907 305 1007 363 1080 445" stroke="#0B2D5C" stroke-width="32" stroke-linecap="round" opacity=".82"/><path d="M419 647C502 536 612 486 741 500C861 512 949 570 1022 666" stroke="#FFFFFF" stroke-width="21" stroke-linecap="round" opacity=".92"/><rect x="477" y="226" width="288" height="350" rx="32" fill="#0B2D5C"/><rect x="520" y="293" width="202" height="238" rx="18" fill="#101827"/><path d="M621 250L692 367H550L621 250Z" fill="#F2B84B"/><path d="M430 580H810" stroke="#0A1D3A" stroke-width="21" stroke-linecap="round"/><rect x="770" y="148" width="238" height="92" rx="26" fill="white" opacity=".96"/><text x="800" y="185" fill="#0B2D5C" font-family="Arial" font-size="19" font-weight="800">Jadwal Fleksibel</text><text x="800" y="210" fill="#5D718A" font-family="Arial" font-size="14" font-weight="600">Berangkat sesuai kebutuhan</text><rect x="792" y="264" width="262" height="92" rx="26" fill="white" opacity=".96"/><text x="825" y="301" fill="#0B2D5C" font-family="Arial" font-size="19" font-weight="800">Akomodasi Nyaman</text><text x="825" y="326" fill="#5D718A" font-family="Arial" font-size="14" font-weight="600">Hotel dekat dan terpercaya</text><rect x="804" y="379" width="238" height="92" rx="26" fill="white" opacity=".96"/><text x="835" y="416" fill="#0B2D5C" font-family="Arial" font-size="19" font-weight="800">Pendampingan Mitra</text><text x="835" y="441" fill="#5D718A" font-family="Arial" font-size="14" font-weight="600">Informasi jelas sebelum berangkat</text><defs><linearGradient id="g" x1="0" x2="1100" y1="0" y2="760"><stop stop-color="#F8FBFF"/><stop offset=".53" stop-color="#E8F4FF"/><stop offset="1" stop-color="#D7ECFF"/></linearGradient></defs></svg>