<svg width="900" height="560" viewBox="0 0 900 560" fill="none" xmlns="http://www.w3.org/2000/svg"><rect width="900" height="560" rx="34" fill="url(#bg)"/><circle cx="745" cy="115" r="125" fill="#F2B84B" opacity=".16"/><circle cx="112" cy="484" r="112" fill="#C7E6FF" opacity=".42"/><path d="M190 455C260 330 370 258 512 240C635 225 736 276 820 382" stroke="#0B2D5C" stroke-width="24" stroke-linecap="round"/><rect x="387" y="235" width="180" height="220" rx="18" fill="#101827"/><path d="M477 186L530 280H424L477 186Z" fill="#F2B84B"/><path d="M350 458H610" stroke="#0A1D3A" stroke-width="16" stroke-linecap="round"/><rect x="42" y="42" width="156" height="48" rx="16" fill="#0B2D5C"/><text x="70" y="73" fill="white" font-family="Arial" font-size="20" font-weight="800">Paket</text><rect x="720" y="42" width="120" height="90" rx="22" fill="#FFFFFF" opacity=".96"/><text x="750" y="87" fill="#0B2D5C" font-family="Arial" font-size="34" font-weight="900">40</text><text x="760" y="112" fill="#5D718A" font-family="Arial" font-size="16" font-weight="700">Hari</text><text x="58" y="495" fill="#0B2D5C" font-family="Arial" font-size="44" font-weight="900">Haji Khusus</text><defs><linearGradient id="bg" x1="0" x2="900" y1="0" y2="560"><stop stop-color="#FFFFFF"/><stop offset=".55" stop-color="#EAF5FF"/><stop offset="1" stop-color="#D7ECFF"/></linearGradient></defs></svg>